<svg width="71" height="37" viewBox="0 0 71 37" fill="none" xmlns="http://www.w3.org/2000/svg">
<g clip-path="url(#clip0_7_1972)">
<path d="M17.0456 10.9119C18.3422 10.9047 19.4752 11.0822 20.5142 11.6596C21.4245 12.1671 22.1729 12.888 22.8481 13.686C23.7549 14.7602 24.7765 15.7052 25.9931 16.3669C26.7101 16.756 27.542 16.9138 28.3531 16.9892C29.9647 17.138 31.5432 16.8941 32.9216 16.0029C34.3296 15.0919 35.4452 13.8564 36.0857 12.2263C36.4529 11.292 37.0481 9.94351 37.3388 9.49699C37.6294 9.05047 39.5717 5.96251 41.1973 4.5853C43.3032 2.80102 45.5831 1.37539 48.2268 0.66168C50.5189 0.0430112 52.8528 -0.179351 55.2232 0.155986C56.1248 0.283306 57.0228 0.428559 57.8878 0.692165C59.442 1.162 60.9109 1.83446 62.3102 2.70777C63.9601 3.73709 65.3629 5.03719 66.6368 6.4951C67.6846 7.69299 68.5182 9.05585 69.1761 10.5263C69.5433 11.3476 69.9175 12.1653 70.1542 13.0422C70.7164 15.1206 71.1323 17.2277 70.9635 19.3921C70.8869 20.364 70.7686 21.3414 70.5684 22.3097C70.3282 23.4735 69.9836 24.5889 69.5416 25.6828C68.4538 28.3745 66.83 30.6662 64.6528 32.524C63.9601 33.1158 63.257 33.704 62.4929 34.2061C61.5079 34.8535 60.4619 35.3771 59.3758 35.8146C58.222 36.2791 57.0402 36.6718 55.808 36.8153C54.5462 36.9623 53.274 37.0574 52 36.9641C50.465 36.8529 48.9508 36.6162 47.4906 36.0926C46.4011 35.7017 45.3534 35.23 44.3283 34.6705C43.4076 34.1684 42.5983 33.539 41.7751 32.906C40.5603 31.9699 39.5665 30.8276 38.6284 29.6046C37.4919 28.1252 36.8462 26.3893 36.0596 24.727C35.3251 23.1723 34.3279 21.8865 32.8207 21.0867C31.2526 20.2565 29.5853 19.8637 27.8205 20.0843C26.4473 20.2565 25.2725 20.9182 24.2387 21.8327C23.7236 22.2882 23.2763 22.8172 22.8777 23.3964C22.2007 24.3827 21.1947 24.9296 20.1609 25.4515C18.6973 26.1903 17.1744 26.323 15.6185 25.9912C13.8415 25.6129 12.3465 24.6607 11.2692 23.1687C10.5991 22.2416 10.0109 21.162 9.87513 20.0108C9.6541 18.1315 9.71153 16.2665 10.8132 14.5665C11.5842 13.3776 12.4892 12.3608 13.7127 11.7332C14.7813 11.1862 15.9387 10.8186 17.0474 10.9083L17.0456 10.9119ZM52.9868 30.5353C59.4072 30.6913 64.799 24.9512 64.6771 18.5045C64.5449 11.5341 59.616 6.69236 53.1922 6.48434C49.9637 6.38033 47.0973 7.57105 44.7964 9.93275C42.0553 12.7463 40.9762 16.2539 41.4183 20.156C41.7229 22.8405 42.9203 25.2219 44.8208 27.1084C47.0781 29.3464 49.8053 30.5533 52.9868 30.5353Z" fill="#0062FF"/>
<path d="M0.0314442 18.3631C-0.0346913 16.3439 0.316871 14.47 0.912091 12.6391C1.40985 11.113 2.17563 9.72686 2.99884 8.364C3.65498 7.2755 4.37551 6.2408 5.28922 5.37645C6.88692 3.86475 8.58208 2.51444 10.641 1.6734C11.5582 1.29862 12.4719 0.936381 13.4117 0.629736C13.7232 0.527521 14.0383 0.556213 14.3481 0.47731C15.6377 0.149147 16.9517 -0.0516965 18.2744 0.0307927C19.987 0.140181 21.7048 0.301573 23.3407 0.89155C25.2604 1.58195 27.1279 2.41401 28.736 3.7195C29.7263 4.52287 30.6157 5.45356 31.5067 6.38246C32.1785 7.08541 32.5875 7.94079 33.1393 8.70651C33.4873 9.18889 33.4334 9.37001 32.9356 9.64796C31.4528 10.4764 29.9769 11.3175 28.5655 12.2733C28.1042 12.5853 28.1286 12.5476 27.838 12.0832C27.4011 11.3856 26.8773 10.7508 26.3308 10.1393C25.2134 8.89121 23.8611 7.97845 22.34 7.36337C21.2888 6.93837 20.1906 6.69987 19.0524 6.54565C17.7488 6.36991 16.4975 6.56717 15.2478 6.7698C14.4664 6.89712 13.7076 7.25757 12.9749 7.61801C10.8933 8.64374 9.19644 10.1268 8.01644 12.1728C7.5065 13.0569 7.03311 14.002 6.75813 14.9847C6.29692 16.638 6.15594 18.3362 6.38916 20.0793C6.75987 22.8695 8.01992 25.1398 9.88216 27.1375C10.7541 28.0717 11.7722 28.7352 12.8809 29.3127C13.9617 29.8758 15.079 30.3133 16.2695 30.4962C17.0683 30.6182 17.888 30.5679 18.6973 30.5124C19.5902 30.4514 20.4813 30.342 21.3254 30.0102C22.2861 29.6319 23.2764 29.3485 24.1466 28.7137C24.9959 28.0933 25.8574 27.5069 26.5675 26.7125C27.02 26.205 27.4237 25.6706 27.7353 25.0573C27.9946 24.548 28.0955 24.5193 28.5602 24.7973C29.9456 25.6293 31.331 26.4614 32.7094 27.306C33.5082 27.7938 33.4664 27.783 32.9826 28.6241C32.2255 29.9403 31.2979 31.1221 30.1666 32.085C28.4593 33.5411 26.6789 34.9004 24.5434 35.6751C23.3825 36.0965 22.2286 36.5 21.0121 36.7241C19.0733 37.0792 17.1414 37.0362 15.2026 36.7726C14.0191 36.6112 12.8461 36.3368 11.7618 35.8616C10.7106 35.4025 9.68723 34.852 8.67084 34.2925C7.06966 33.412 5.85485 32.0904 4.60698 30.8047C3.83772 30.012 3.2512 29.0527 2.66468 28.1004C1.69876 26.5349 0.932976 24.8672 0.536163 23.0758C0.189821 21.5121 -0.088644 19.9089 0.0366654 18.3577L0.0314442 18.3631Z" fill="#004FCD"/>
<path d="M60.4078 18.5475C60.4322 22.6594 56.9688 26.1329 53.0128 26.1472C49.0726 26.1616 45.5517 22.7222 45.6161 18.4937C45.6805 14.3208 48.8428 10.8975 53.0302 10.9047C56.9984 10.9118 60.4635 14.2814 60.4078 18.5475Z" fill="#0062FF"/>
</g>
<defs>
<clipPath id="clip0_7_1972">
<rect width="71" height="37" fill="white"/>
</clipPath>
</defs>
</svg>
